<svg width="21" height="21" viewBox="0 0 21 21" fill="none" xmlns="http://www.w3.org/2000/svg">
<path fill-rule="evenodd" clip-rule="evenodd" d="M11.3094 3.63037C10.8283 2.79704 9.62547 2.79704 9.1443 3.63037L1.68691 16.547C1.20579 17.3804 1.80719 18.422 2.76945 18.422H17.6843C18.6466 18.422 19.248 17.3804 18.7669 16.547L11.3094 3.63037ZM10.4542 8.94855C10.6888 8.94855 10.8772 9.14221 10.8707 9.37679L10.79 12.2889C10.7837 12.5144 10.5991 12.694 10.3734 12.694H10.0774C9.85172 12.694 9.66714 12.5144 9.6608 12.2889L9.58005 9.37679C9.57355 9.14221 9.76197 8.94855 9.99655 8.94855H10.4542ZM10.2274 15.5396C10.0063 15.5396 9.81722 15.4624 9.66005 15.3079C9.50297 15.1508 9.42572 14.9616 9.42839 14.7406C9.42572 14.5222 9.50297 14.3358 9.66005 14.1813C9.81722 14.0241 10.0063 13.9456 10.2274 13.9456C10.4431 13.9456 10.6296 14.0241 10.7867 14.1813C10.9438 14.3358 11.0237 14.5222 11.0264 14.7406C11.0237 14.8871 10.9851 15.0216 10.9106 15.1441C10.8386 15.264 10.7427 15.3599 10.6229 15.4317C10.5031 15.5036 10.3712 15.5396 10.2274 15.5396Z" fill="white"/>
</svg>
